<svg xmlns="http://www.w3.org/2000/svg" version="1.1" xmlns:xlink="http://www.w3.org/1999/xlink" xmlns:svgjs="http://svgjs.com/svgjs" width="1440" height="560" preserveAspectRatio="none" viewBox="0 0 1440 560"><g mask="url(&quot;#SvgjsMask2076&quot;)" fill="none"><rect width="1440" height="560" x="0" y="0" fill="url(#SvgjsLinearGradient2077)"></rect><path d="M1440 0L1354.75 0L1440 270.86z" fill="rgba(255, 255, 255, .1)"></path><path d="M1354.75 0L1440 270.86L1440 299.27000000000004L913.79 0z" fill="rgba(255, 255, 255, .075)"></path><path d="M913.79 0L1440 299.27000000000004L1440 398.77000000000004L559.6299999999999 0z" fill="rgba(255, 255, 255, .05)"></path><path d="M559.6299999999999 0L1440 398.77000000000004L1440 506.85L401.89999999999986 0z" fill="rgba(255, 255, 255, .025)"></path><path d="M0 560L489.73 560L0 506.81z" fill="rgba(0, 0, 0, .1)"></path><path d="M0 506.81L489.73 560L932.6800000000001 560L0 323.7z" fill="rgba(0, 0, 0, .075)"></path><path d="M0 323.7L932.6800000000001 560L945.95 560L0 136.07999999999998z" fill="rgba(0, 0, 0, .05)"></path><path d="M0 136.07999999999998L945.95 560L1169.8200000000002 560L0 81.68999999999998z" fill="rgba(0, 0, 0, .025)"></path></g><defs><mask id="SvgjsMask2076"><rect width="1440" height="560" fill="#ffffff"></rect></mask><linearGradient x1="84.72%" y1="-39.29%" x2="15.28%" y2="139.29%" gradientUnits="userSpaceOnUse" id="SvgjsLinearGradient2077"><stop stop-color="rgba(255, 255, 255, 1)" offset="0"></stop><stop stop-color="rgba(236, 236, 236, 1)" offset="0.89"></stop></linearGradient></defs></svg>